<svg width="38" height="38" viewBox="0 0 38 38" fill="none" xmlns="http://www.w3.org/2000/svg">
<path d="M34.3855 28.8785L29.4589 5.45504C29.3952 5.14872 29.2716 4.85802 29.0952 4.59962C28.9188 4.34123 28.693 4.12023 28.431 3.94933C28.1689 3.77843 27.8756 3.661 27.5681 3.60378C27.2605 3.54656 26.9446 3.55068 26.6386 3.6159L19.6902 5.10918C19.0756 5.24375 18.539 5.61555 18.1971 6.1437C17.8552 6.67186 17.7356 7.31365 17.8645 7.92949L22.7911 31.3529C22.9009 31.8873 23.1913 32.3676 23.6136 32.7131C24.0358 33.0586 24.5641 33.2482 25.1097 33.25C25.2783 33.2497 25.4465 33.2318 25.6114 33.1965L32.5598 31.7032C33.1751 31.5684 33.7123 31.1958 34.0542 30.6667C34.3962 30.1377 34.5153 29.4949 34.3855 28.8785ZM20.1875 7.4441V7.43074L27.1344 5.94636L27.6287 8.30207L20.6818 9.79683L20.1875 7.4441ZM21.1702 12.1154L28.12 10.6236L28.6158 12.9838L21.6719 14.4771L21.1702 12.1154ZM22.1558 16.8016L29.1056 15.3083L31.0798 24.6955L24.13 26.1888L22.1558 16.8016ZM32.0625 29.3817L25.1156 30.8661L24.6213 28.5104L31.5682 27.0156L32.0625 29.3683V29.3817ZM15.4375 4.74996H8.3125C7.68261 4.74996 7.07852 5.00018 6.63312 5.44558C6.18772 5.89098 5.9375 6.49507 5.9375 7.12496V30.875C5.9375 31.5048 6.18772 32.1089 6.63312 32.5543C7.07852 32.9997 7.68261 33.25 8.3125 33.25H15.4375C16.0674 33.25 16.6715 32.9997 17.1169 32.5543C17.5623 32.1089 17.8125 31.5048 17.8125 30.875V7.12496C17.8125 6.49507 17.5623 5.89098 17.1169 5.44558C16.6715 5.00018 16.0674 4.74996 15.4375 4.74996ZM8.3125 7.12496H15.4375V9.49996H8.3125V7.12496ZM8.3125 11.875H15.4375V26.125H8.3125V11.875ZM15.4375 30.875H8.3125V28.5H15.4375V30.875Z" fill="#FDBB52"/>
</svg>
