<svg width="38" height="38" viewBox="0 0 38 38" fill="none" xmlns="http://www.w3.org/2000/svg">
<path d="M28.3333 10.056V5.66667H29.6667C30.0203 5.66667 30.3594 5.52619 30.6095 5.27614C30.8595 5.02609 31 4.68696 31 4.33333C31 3.97971 30.8595 3.64057 30.6095 3.39052C30.3594 3.14048 30.0203 3 29.6667 3H8.33333C7.97971 3 7.64057 3.14048 7.39052 3.39052C7.14048 3.64057 7 3.97971 7 4.33333C7 4.68696 7.14048 5.02609 7.39052 5.27614C7.64057 5.52619 7.97971 5.66667 8.33333 5.66667H9.66667V10.056C9.66102 11.7906 10.1414 13.4921 11.0535 14.9675C11.9655 16.443 13.2726 17.6335 14.8267 18.404L16.0187 19L14.8267 19.596C13.2726 20.3665 11.9655 21.557 11.0535 23.0325C10.1414 24.5079 9.66102 26.2094 9.66667 27.944V32.3333H8.33333C7.97971 32.3333 7.64057 32.4738 7.39052 32.7239C7.14048 32.9739 7 33.313 7 33.6667C7 34.0203 7.14048 34.3594 7.39052 34.6095C7.64057 34.8595 7.97971 35 8.33333 35H29.6667C30.0203 35 30.3594 34.8595 30.6095 34.6095C30.8595 34.3594 31 34.0203 31 33.6667C31 33.313 30.8595 32.9739 30.6095 32.7239C30.3594 32.4738 30.0203 32.3333 29.6667 32.3333H28.3333V27.944C28.339 26.2094 27.8586 24.5079 26.9465 23.0325C26.0345 21.557 24.7274 20.3665 23.1733 19.596L21.9813 19L23.1733 18.404C24.7274 17.6335 26.0345 16.443 26.9465 14.9675C27.8586 13.4921 28.339 11.7906 28.3333 10.056ZM12.3333 10.056V5.66667H25.6667V10.056C25.6709 11.295 25.3279 12.5103 24.6765 13.5643C24.0251 14.6182 23.0914 15.4685 21.9813 16.0187L19 17.5093L16.0187 16.0187C14.9086 15.4685 13.9749 14.6182 13.3235 13.5643C12.6721 12.5103 12.3291 11.295 12.3333 10.056ZM25.6667 27.944V32.3333H12.3333V27.944C12.3291 26.705 12.6721 25.4897 13.3235 24.4357C13.9749 23.3818 14.9086 22.5315 16.0187 21.9813L19 20.4907L21.9813 21.9813C23.0914 22.5315 24.0251 23.3818 24.6765 24.4357C25.3279 25.4897 25.6709 26.705 25.6667 27.944Z" fill="#FDBB52"/>
<path d="M16.7414 13.5578C17.0574 13.7126 17.4217 13.7362 17.755 13.6236C18.0883 13.511 18.3636 13.2712 18.5208 12.9565C18.6781 12.6418 18.7046 12.2776 18.5946 11.9435C18.4846 11.6093 18.2469 11.3321 17.9334 11.1724C17.7114 11.0625 17.5246 10.8926 17.3943 10.6819C17.264 10.4712 17.1953 10.2282 17.1961 9.98043C17.1961 9.62681 17.0556 9.28767 16.8056 9.03762C16.5555 8.78757 16.2164 8.64709 15.8628 8.64709C15.5091 8.64709 15.17 8.78757 14.92 9.03762C14.6699 9.28767 14.5294 9.62681 14.5294 9.98043C14.5271 10.7238 14.7331 11.453 15.1241 12.0853C15.5151 12.7176 16.0753 13.2277 16.7414 13.5578ZM20.3174 24.2911C20.0015 24.1363 19.6372 24.1126 19.3039 24.2252C18.9706 24.3379 18.6953 24.5777 18.538 24.8924C18.3808 25.2071 18.3543 25.5712 18.4643 25.9054C18.5743 26.2396 18.812 26.5167 19.1254 26.6764C19.3475 26.7863 19.5342 26.9563 19.6646 27.167C19.7949 27.3777 19.8636 27.6207 19.8628 27.8684C19.8628 28.222 20.0032 28.5612 20.2533 28.8112C20.5033 29.0613 20.8425 29.2018 21.1961 29.2018C21.5497 29.2018 21.8889 29.0613 22.1389 28.8112C22.389 28.5612 22.5294 28.222 22.5294 27.8684C22.5318 27.125 22.3258 26.3959 21.9348 25.7636C21.5438 25.1313 20.9835 24.6212 20.3174 24.2911Z" fill="#FDBB52"/>
</svg>
