<svg width="48" height="48" viewBox="0 0 48 48" fill="none" xmlns="http://www.w3.org/2000/svg">
<g clip-path="url(#clip0_127_10171)">
<path d="M8 2H22V0H6C4.4087 0 2.88258 0.632141 1.75736 1.75736C0.632141 2.88258 0 4.4087 0 6L0 42C0 43.5913 0.632141 45.1174 1.75736 46.2426C2.88258 47.3679 4.4087 48 6 48H28V46H6C5.40263 46.0014 4.81254 45.8689 4.27306 45.6124C3.73357 45.3559 3.2584 44.9818 2.88242 44.5175C2.50645 44.0533 2.23922 43.5108 2.10036 42.9298C1.96151 42.3488 1.95455 41.744 2.08 41.16C2.29618 40.2404 2.82326 39.4237 3.57214 38.8479C4.32102 38.2721 5.24576 37.9726 6.19 38H28V36H8V2ZM6 36C4.52405 36.0392 3.10859 36.5948 2 37.57V6C2 4.93913 2.42143 3.92172 3.17157 3.17157C3.92172 2.42143 4.93913 2 6 2V36Z" fill="#FDBB52"/>
<path d="M18 6H13C12.7348 6 12.4804 6.10536 12.2929 6.29289C12.1054 6.48043 12 6.73478 12 7V12H14V8H18V6Z" fill="#FDBB52"/>
<path d="M17 18H14V16H17V14H12V19C12 19.2652 12.1054 19.5196 12.2929 19.7071C12.4804 19.8946 12.7348 20 13 20H17V18Z" fill="#FDBB52"/>
<path d="M14 23H12V25H14V23Z" fill="#FDBB52"/>
<path d="M18 23H16V25H18V23Z" fill="#FDBB52"/>
<path d="M28 41H13V43H28V41Z" fill="#FDBB52"/>
<path d="M11 41H9V43H11V41Z" fill="#FDBB52"/>
<path d="M48 14.0001C48.0028 11.2731 47.2091 8.60476 45.7164 6.32262C44.2238 4.04048 42.0971 2.24393 39.5977 1.15361C37.0982 0.0632948 34.3347 -0.273331 31.6466 0.185076C28.9584 0.643483 26.4627 1.87697 24.4658 3.73404C22.469 5.59112 21.0579 7.99095 20.406 10.6388C19.754 13.2867 19.8896 16.0673 20.796 18.6392C21.7024 21.2111 23.3401 23.4623 25.5081 25.1164C27.6761 26.7704 30.28 27.7553 33 27.9501V32.1801C32.4164 32.3864 31.911 32.7682 31.5529 33.273C31.1949 33.7779 31.0017 34.3811 31 35.0001V45.0001C31 45.7957 31.3161 46.5588 31.8787 47.1214C32.4413 47.684 33.2043 48.0001 34 48.0001C34.7956 48.0001 35.5587 47.684 36.1213 47.1214C36.6839 46.5588 37 45.7957 37 45.0001V35.0001C36.9983 34.3811 36.8051 33.7779 36.4471 33.273C36.089 32.7682 35.5835 32.3864 35 32.1801V27.9501C38.5284 27.6974 41.8304 26.1184 44.2421 23.5305C46.6538 20.9425 47.9964 17.5376 48 14.0001ZM35 45.0001C35 45.2653 34.8946 45.5197 34.7071 45.7072C34.5196 45.8947 34.2652 46.0001 34 46.0001C33.7348 46.0001 33.4804 45.8947 33.2929 45.7072C33.1054 45.5197 33 45.2653 33 45.0001V35.0001C33 34.7349 33.1054 34.4805 33.2929 34.293C33.4804 34.1054 33.7348 34.0001 34 34.0001C34.2652 34.0001 34.5196 34.1054 34.7071 34.293C34.8946 34.4805 35 34.7349 35 35.0001V45.0001ZM34 26.0001C31.6266 26.0001 29.3065 25.2963 27.3332 23.9777C25.3598 22.6591 23.8217 20.785 22.9134 18.5923C22.0052 16.3996 21.7675 13.9868 22.2306 11.659C22.6936 9.33123 23.8365 7.19304 25.5147 5.51481C27.1929 3.83658 29.3311 2.69369 31.6589 2.23066C33.9867 1.76764 36.3995 2.00528 38.5922 2.91353C40.7849 3.82178 42.6591 5.35985 43.9776 7.33324C45.2962 9.30663 46 11.6267 46 14.0001C46 17.1827 44.7357 20.2349 42.4853 22.4854C40.2348 24.7358 37.1826 26.0001 34 26.0001Z" fill="#FDBB52"/>
<path d="M35 13H33V15H35V13Z" fill="#FDBB52"/>
<path d="M40 13H38V15H40V13Z" fill="#FDBB52"/>
<path d="M30 13H28V15H30V13Z" fill="#FDBB52"/>
</g>
<defs>
<clipPath id="clip0_127_10171">
<rect width="48" height="48" fill="white"/>
</clipPath>
</defs>
</svg>
