<svg width="41" height="48" viewBox="0 0 41 48" fill="none" xmlns="http://www.w3.org/2000/svg">
<g clip-path="url(#clip0_127_10159)">
<path d="M10.8951 19.3044C11.5492 19.3044 12.0794 18.7788 12.0794 18.1305C12.0794 17.4821 11.5492 16.9565 10.8951 16.9565C10.2411 16.9565 9.71094 17.4821 9.71094 18.1305C9.71094 18.7788 10.2411 19.3044 10.8951 19.3044Z" fill="#FDBB52"/>
<path d="M19.9738 32.6088C20.6278 32.6088 21.158 32.0832 21.158 31.4349C21.158 30.7866 20.6278 30.261 19.9738 30.261C19.3197 30.261 18.7896 30.7866 18.7896 31.4349C18.7896 32.0832 19.3197 32.6088 19.9738 32.6088Z" fill="#FDBB52"/>
<path d="M16.0265 32.6088C16.6805 32.6088 17.2107 32.0832 17.2107 31.4349C17.2107 30.7866 16.6805 30.261 16.0265 30.261C15.3725 30.261 14.8423 30.7866 14.8423 31.4349C14.8423 32.0832 15.3725 32.6088 16.0265 32.6088Z" fill="#FDBB52"/>
<path d="M23.921 32.6088C24.575 32.6088 25.1052 32.0832 25.1052 31.4349C25.1052 30.7866 24.575 30.261 23.921 30.261C23.267 30.261 22.7368 30.7866 22.7368 31.4349C22.7368 32.0832 23.267 32.6088 23.921 32.6088Z" fill="#FDBB52"/>
<path d="M21.9474 36.5219C22.6014 36.5219 23.1316 35.9963 23.1316 35.348C23.1316 34.6997 22.6014 34.1741 21.9474 34.1741C21.2934 34.1741 20.7632 34.6997 20.7632 35.348C20.7632 35.9963 21.2934 36.5219 21.9474 36.5219Z" fill="#FDBB52"/>
<path d="M18.0001 36.5219C18.6541 36.5219 19.1843 35.9963 19.1843 35.348C19.1843 34.6997 18.6541 34.1741 18.0001 34.1741C17.3461 34.1741 16.8159 34.6997 16.8159 35.348C16.8159 35.9963 17.3461 36.5219 18.0001 36.5219Z" fill="#FDBB52"/>
<path d="M29.0529 19.3044C29.7069 19.3044 30.2371 18.7788 30.2371 18.1305C30.2371 17.4821 29.7069 16.9565 29.0529 16.9565C28.3988 16.9565 27.8687 17.4821 27.8687 18.1305C27.8687 18.7788 28.3988 19.3044 29.0529 19.3044Z" fill="#FDBB52"/>
<path d="M36.158 1.30446C36.158 0.79576 35.8422 0.326195 35.329 0.169673C34.8553 0.0131517 34.3027 0.208804 33.9869 0.600108C31.7369 3.73054 28.0659 5.56967 24.1974 5.56967H15.7106C11.8422 5.56967 8.17113 3.69141 5.92113 0.600108C5.60534 0.169673 5.09218 0.0131517 4.57902 0.169673C4.10534 0.326195 3.78955 0.79576 3.78955 1.30446V10.3045C3.78955 10.9697 4.30271 11.4784 4.97376 11.4784C5.64481 11.4784 6.15797 10.9697 6.15797 10.3045V4.35663C8.76324 6.66533 12.158 7.95663 15.7106 7.95663H24.2369C27.7896 7.95663 31.1843 6.66533 33.7896 4.35663V10.3045C33.7896 10.9697 34.3027 11.4784 34.9738 11.4784C35.6448 11.4784 36.158 10.9697 36.158 10.3045V1.30446Z" fill="#FDBB52"/>
<path d="M36.158 18.1306C36.158 14.2567 32.9606 11.0872 29.0527 11.0872C26.0527 11.0872 23.4869 12.9263 22.4606 15.548C22.4606 15.5872 22.4211 15.5872 22.4211 15.6263L19.9738 22.435L17.5264 15.6263C17.5264 15.5872 17.4869 15.5872 17.4869 15.548C16.4606 12.9263 13.8948 11.0872 10.8948 11.0872C6.98692 11.0872 3.78955 14.2567 3.78955 18.1306C3.78955 22.0045 6.98692 25.1741 10.8948 25.1741C13.579 25.1741 15.908 23.6872 17.1317 21.4959L18.8685 26.348C19.0264 26.8176 19.5001 27.1306 19.9738 27.1306C20.4474 27.1306 20.9211 26.8176 21.079 26.348L22.8159 21.4959C24.0396 23.6872 26.3685 25.1741 29.0527 25.1741C32.9606 25.1741 36.158 22.0045 36.158 18.1306ZM10.8948 22.8263C8.28955 22.8263 6.15797 20.7132 6.15797 18.1306C6.15797 15.548 8.28955 13.435 10.8948 13.435C13.5001 13.435 15.6317 15.548 15.6317 18.1306C15.6317 20.7132 13.5001 22.8263 10.8948 22.8263ZM24.3159 18.1306C24.3159 15.548 26.4474 13.435 29.0527 13.435C31.658 13.435 33.7896 15.548 33.7896 18.1306C33.7896 20.7132 31.658 22.8263 29.0527 22.8263C26.4474 22.8263 24.3159 20.7132 24.3159 18.1306Z" fill="#FDBB52"/>
<path d="M3.90785 40.3176C5.76312 42.7828 8.17101 44.6611 10.9342 45.7959C10.9342 45.835 10.9342 45.8741 10.9342 45.9132V46.6959C10.9342 47.3611 11.4473 47.8698 12.1184 47.8698C12.7894 47.8698 13.3026 47.3611 13.3026 46.6959V46.5393C14.6842 46.8915 16.1052 47.0872 17.5658 47.0872H22.5C23.9605 47.0872 25.3815 46.8915 26.7631 46.5393V46.6959C26.7631 47.3611 27.2763 47.8698 27.9473 47.8698C28.6184 47.8698 29.1315 47.3611 29.1315 46.6959V45.9132C29.1315 45.8741 29.1315 45.835 29.1315 45.7959C31.8947 44.6611 34.3026 42.7828 36.1579 40.3176C39.3552 36.0524 40.3421 30.6915 38.8421 25.5654C38.8026 25.448 38.8026 25.3306 38.7236 25.2132C38.4868 24.7828 38.0526 24.5872 37.6184 24.5872C37.5394 24.5872 37.421 24.5872 37.3421 24.6263C37.2236 24.6654 37.1447 24.7046 37.0658 24.7437C32.7631 27.0524 29.6842 31.2393 28.5789 36.248C28.4605 36.8741 28.8552 37.5002 29.4868 37.6567C29.5658 37.6567 29.6447 37.6959 29.7236 37.6959C30.2763 37.6959 30.75 37.3045 30.8684 36.7567C31.6973 32.9611 33.8684 29.7132 36.8684 27.6002C37.6184 31.5524 36.7105 35.6219 34.2236 38.9089C31.421 42.6263 27.1579 44.7393 22.5 44.7393H17.5263C12.8684 44.7393 8.60522 42.6263 5.80259 38.9089C3.31575 35.6219 2.40785 31.5915 3.15785 27.6002C6.19733 29.6741 8.36838 32.9611 9.19733 36.7567C9.31575 37.3045 9.78943 37.6959 10.3421 37.6959C10.421 37.6959 10.5 37.6959 10.5789 37.6567C11.2105 37.5393 11.6447 36.9132 11.4868 36.248C10.3815 31.2393 7.30259 27.0524 2.96049 24.7437C2.92101 24.7046 2.88154 24.7046 2.84207 24.7046C2.72364 24.6654 2.60522 24.6263 2.4868 24.6263C2.44733 24.6263 2.44733 24.6263 2.40785 24.6263C2.36838 24.6263 2.28943 24.6263 2.24996 24.6263C2.21049 24.6263 2.17101 24.6263 2.13154 24.6654C2.09207 24.6654 2.05259 24.6654 2.05259 24.7046C2.01312 24.7046 1.97364 24.7437 1.93417 24.7437C1.8947 24.7437 1.8947 24.7828 1.85522 24.7828C1.81575 24.8219 1.77628 24.8219 1.7368 24.8611C1.69733 24.8611 1.69733 24.9002 1.65786 24.9002C1.61838 24.9393 1.57891 24.9785 1.53943 25.0176L1.49996 25.0567C1.46049 25.135 1.38154 25.2132 1.34207 25.2915C1.30259 25.3698 1.26312 25.4089 1.26312 25.4872C-0.315829 30.5741 0.671013 36.0132 3.90785 40.3176Z" fill="#FDBB52"/>
</g>
<defs>
<clipPath id="clip0_127_10159">
<rect width="40" height="48" fill="white" transform="translate(0.5)"/>
</clipPath>
</defs>
</svg>
