<svg width="145" height="48" viewBox="0 0 145 48" fill="none" xmlns="http://www.w3.org/2000/svg">
<path d="M127.842 47.5272C127.133 47.5272 126.586 47.3303 126.202 46.9363C125.817 46.5121 125.625 45.9363 125.625 45.2091V27.0273C125.625 26.2697 125.817 25.6939 126.202 25.3C126.586 24.906 127.118 24.7091 127.798 24.7091C128.507 24.7091 129.039 24.906 129.394 25.3C129.778 25.6939 129.97 26.2697 129.97 27.0273V30.5727L129.482 29.7545C130.133 28.0576 131.152 26.7848 132.542 25.9363C133.931 25.0576 135.527 24.6182 137.33 24.6182C139.044 24.6182 140.463 24.9515 141.586 25.6182C142.739 26.2545 143.596 27.2394 144.158 28.5727C144.719 29.8757 145 31.5273 145 33.5272V45.2091C145 45.9363 144.808 46.5121 144.424 46.9363C144.039 47.3303 143.493 47.5272 142.783 47.5272C142.044 47.5272 141.483 47.3303 141.098 46.9363C140.714 46.5121 140.522 45.9363 140.522 45.2091V33.8C140.522 31.8909 140.153 30.4969 139.414 29.6182C138.704 28.7394 137.581 28.3 136.044 28.3C134.241 28.3 132.793 28.8757 131.699 30.0273C130.635 31.1788 130.103 32.7242 130.103 34.6636V45.2091C130.103 46.7545 129.349 47.5272 127.842 47.5272Z" fill="white"/>
<path d="M110.46 47.5268C109.721 47.5268 109.16 47.3298 108.775 46.9359C108.391 46.5116 108.199 45.9359 108.199 45.2086V27.0268C108.199 26.2692 108.391 25.6935 108.775 25.2995C109.16 24.9056 109.692 24.7086 110.371 24.7086C111.081 24.7086 111.613 24.9056 111.968 25.2995C112.352 25.6935 112.544 26.2692 112.544 27.0268V30.345H112.101C112.573 28.5268 113.445 27.148 114.716 26.2086C115.987 25.2692 117.613 24.7238 119.593 24.5722C120.125 24.5419 120.539 24.6783 120.835 24.9813C121.16 25.2844 121.337 25.7541 121.367 26.3904C121.426 27.0268 121.293 27.5419 120.968 27.9359C120.643 28.2995 120.14 28.5116 119.46 28.5722L118.618 28.6632C116.697 28.845 115.234 29.4662 114.229 30.5268C113.224 31.5874 112.721 33.0419 112.721 34.8904V45.2086C112.721 45.9359 112.529 46.5116 112.145 46.9359C111.79 47.3298 111.229 47.5268 110.46 47.5268Z" fill="white"/>
<path d="M90.4153 47.6182C88.9079 47.6182 87.5483 47.3151 86.3364 46.7091C85.1541 46.103 84.223 45.2848 83.5432 44.2545C82.8634 43.2242 82.5235 42.0575 82.5235 40.7545C82.5235 39.1182 82.9225 37.8303 83.7206 36.8909C84.5482 35.9212 85.893 35.2394 87.7552 34.8454C89.6468 34.4212 92.1888 34.2091 95.3809 34.2091H97.4647V37.0272H95.4253C93.2972 37.0272 91.6124 37.1333 90.371 37.3454C89.1296 37.5576 88.2428 37.9212 87.7108 38.4363C87.2083 38.9212 86.9571 39.603 86.9571 40.4818C86.9571 41.6333 87.3413 42.5727 88.1098 43.3C88.8783 43.9969 89.9424 44.3454 91.302 44.3454C92.3957 44.3454 93.3563 44.0879 94.1839 43.5727C95.0115 43.0272 95.6617 42.3 96.1347 41.3909C96.6371 40.4818 96.8884 39.4363 96.8884 38.2545V33.0273C96.8884 31.3 96.5337 30.0576 95.8243 29.3C95.1149 28.5424 93.9474 28.1636 92.3218 28.1636C91.3759 28.1636 90.3858 28.2848 89.3513 28.5273C88.3463 28.7697 87.297 29.1788 86.2034 29.7545C85.7009 29.9969 85.2723 30.0727 84.9176 29.9818C84.563 29.8909 84.2822 29.6939 84.0753 29.3909C83.8684 29.0576 83.7501 28.7091 83.7206 28.3454C83.7206 27.9515 83.8092 27.5727 83.9866 27.2091C84.1935 26.8454 84.5334 26.5727 85.0063 26.3909C86.3068 25.7545 87.5926 25.3 88.8636 25.0273C90.1345 24.7545 91.3316 24.6182 92.4548 24.6182C94.4351 24.6182 96.0608 24.9363 97.3317 25.5727C98.6323 26.2091 99.5929 27.1788 100.214 28.4818C100.834 29.7848 101.145 31.4666 101.145 33.5273V45.2091C101.145 45.9363 100.967 46.5121 100.613 46.9363C100.258 47.3303 99.7407 47.5272 99.0608 47.5272C98.4106 47.5272 97.8933 47.3303 97.5091 46.9363C97.1248 46.5121 96.9327 45.9363 96.9327 45.2091V42.2545H97.3317C97.0953 43.3757 96.6519 44.3454 96.0017 45.1636C95.381 45.9515 94.5977 46.5575 93.6518 46.9818C92.706 47.406 91.6272 47.6182 90.4153 47.6182Z" fill="white"/>
<path d="M68.9519 47.6182C66.5873 47.6182 64.5478 47.1636 62.8335 46.2545C61.1487 45.3151 59.8334 43.9969 58.8876 42.3C57.9713 40.5727 57.5132 38.5272 57.5132 36.1636C57.5132 33.8606 57.9713 31.8454 58.8876 30.1182C59.8039 28.3909 61.0601 27.0424 62.6562 26.0727C64.2523 25.103 66.07 24.6182 68.1095 24.6182C69.6169 24.6182 70.9618 24.8757 72.1441 25.3909C73.3264 25.8757 74.3313 26.603 75.1589 27.5727C76.0161 28.5121 76.6516 29.6636 77.0654 31.0273C77.5087 32.3909 77.7304 33.9212 77.7304 35.6182C77.7304 36.1333 77.5826 36.5273 77.2871 36.8C76.9915 37.0424 76.5481 37.1636 75.957 37.1636H61.0601V34.3454H74.7156L73.9619 34.9818C73.9619 33.4666 73.7402 32.1788 73.2968 31.1182C72.883 30.0576 72.2475 29.2545 71.3904 28.7091C70.5628 28.1333 69.5283 27.8454 68.2868 27.8454C66.8976 27.8454 65.7154 28.1788 64.74 28.8454C63.7941 29.5121 63.07 30.4363 62.5675 31.6182C62.065 32.8 61.8138 34.1788 61.8138 35.7545V36.0272C61.8138 38.6939 62.4197 40.7091 63.6316 42.0727C64.873 43.406 66.6612 44.0727 68.9962 44.0727C69.8829 44.0727 70.814 43.9515 71.7894 43.7091C72.7943 43.4666 73.7402 43.0575 74.6269 42.4818C75.1294 42.1788 75.5727 42.0424 75.957 42.0727C76.3708 42.103 76.6959 42.2394 76.9324 42.4818C77.1984 42.7242 77.3609 43.0272 77.4201 43.3909C77.4792 43.7545 77.4201 44.1333 77.2427 44.5272C77.0654 44.8909 76.755 45.2242 76.3117 45.5272C75.3067 46.2242 74.1392 46.7545 72.8091 47.1182C71.479 47.4515 70.1933 47.6182 68.9519 47.6182Z" fill="white"/>
<path d="M36.5035 47.2092C35.7646 47.2092 35.1882 46.9971 34.7744 46.5728C34.3606 46.1486 34.1537 45.5577 34.1537 44.8001V17.391C34.1537 16.6031 34.3458 16.0122 34.7301 15.6183C35.1439 15.1941 35.7202 14.9819 36.4592 14.9819C37.1981 14.9819 37.7597 15.1941 38.1439 15.6183C38.5577 16.0122 38.7646 16.6031 38.7646 17.391V43.1637H52.5088C53.1591 43.1637 53.6615 43.3456 54.0162 43.7092C54.3709 44.0425 54.5483 44.5274 54.5483 45.1637C54.5483 45.8001 54.3709 46.3001 54.0162 46.6637C53.6615 47.0274 53.1591 47.2092 52.5088 47.2092H36.5035Z" fill="white"/>
<path d="M26.432 47.4814C25.7226 47.4814 25.1758 47.2692 24.7915 46.845C24.4073 46.3905 24.2151 45.7692 24.2151 44.9814V27.2541C24.2151 26.4662 24.4073 25.8602 24.7915 25.4359C25.1758 25.0117 25.7226 24.7996 26.432 24.7996C27.1413 24.7996 27.6881 25.0117 28.0724 25.4359C28.4862 25.8602 28.6931 26.4662 28.6931 27.2541V44.9814C28.6931 45.7692 28.501 46.3905 28.1167 46.845C27.7325 47.2692 27.1709 47.4814 26.432 47.4814Z" fill="white"/>
<path d="M2.2168 47.5273C1.50743 47.5273 0.960614 47.3303 0.576369 46.9364C0.192123 46.5121 0 45.9364 0 45.2091V17.1636C0 16.4061 0.192123 15.8303 0.576369 15.4364C0.960614 15.0424 1.50743 14.8455 2.2168 14.8455C2.92618 14.8455 3.47299 15.0424 3.85724 15.4364C4.27104 15.8303 4.47794 16.4061 4.47794 17.1636V29.7545H3.85724C4.5075 28.0576 5.52723 26.7848 6.91642 25.9364C8.30562 25.0576 9.90172 24.6182 11.7047 24.6182C13.419 24.6182 14.8378 24.9515 15.961 25.6182C17.1137 26.2545 17.9709 27.2394 18.5325 28.5727C19.0941 29.8758 19.3749 31.5273 19.3749 33.5273V45.2091C19.3749 45.9364 19.1827 46.5121 18.7985 46.9364C18.4142 47.3303 17.8674 47.5273 17.1581 47.5273C16.4191 47.5273 15.8575 47.3303 15.4733 46.9364C15.089 46.5121 14.8969 45.9364 14.8969 45.2091V33.8C14.8969 31.8909 14.5274 30.497 13.7885 29.6182C13.0791 28.7394 11.956 28.3 10.419 28.3C8.61597 28.3 7.16766 28.8758 6.07404 30.0273C5.00997 31.1788 4.47794 32.7242 4.47794 34.6636V45.2091C4.47794 46.7545 3.72423 47.5273 2.2168 47.5273Z" fill="white"/>
<g clip-path="url(#clip0_526_70)">
<path d="M11.6309 1.56519H26.4095C28.4416 1.56519 30.1042 3.26973 30.1042 5.35306V14.8228C30.1042 16.9061 28.4416 18.6106 26.4095 18.6106V21.4515C26.4095 22.3038 25.3935 22.6826 24.8393 22.1144L21.4217 18.6106H11.6309C9.5988 18.6106 7.9362 16.9061 7.9362 14.8228V5.35306C7.9362 3.26973 9.5988 1.56519 11.6309 1.56519Z" fill="#FDBB52"/>
</g>
<defs>
<clipPath id="clip0_526_70">
<rect width="22.168" height="22.7273" fill="white" transform="matrix(-1 0 0 1 30.1042 0.618164)"/>
</clipPath>
</defs>
</svg>
