<svg width="32" height="32" viewBox="0 0 32 32" fill="none" xmlns="http://www.w3.org/2000/svg">
<rect width="32" height="32" fill="white"/>
<path d="M22.3549 29.8977C21.9702 29.8977 21.6736 29.7855 21.4652 29.5611C21.2568 29.3206 21.1526 28.992 21.1526 28.5752V19.197C21.1526 18.7801 21.2568 18.4595 21.4652 18.2351C21.6736 18.0107 21.9702 17.8984 22.3549 17.8984C22.7397 17.8984 23.0362 18.0107 23.2446 18.2351C23.4691 18.4595 23.5813 18.7801 23.5813 19.197V28.5752C23.5813 28.992 23.4771 29.3206 23.2687 29.5611C23.0603 29.7855 22.7557 29.8977 22.3549 29.8977Z" fill="#0E0E0F"/>
<path d="M9.88031 29.7642C9.49557 29.7642 9.19899 29.66 8.99059 29.4516C8.78218 29.2271 8.67798 28.9225 8.67798 28.5378V13.701C8.67798 13.3002 8.78218 12.9956 8.99059 12.7872C9.19899 12.5788 9.49557 12.4746 9.88031 12.4746C10.2651 12.4746 10.5616 12.5788 10.77 12.7872C10.9945 12.9956 11.1067 13.3002 11.1067 13.701V20.3619H10.77C11.1227 19.4642 11.6758 18.7909 12.4293 18.342C13.1827 17.8771 14.0484 17.6446 15.0263 17.6446C15.9561 17.6446 16.7256 17.821 17.3348 18.1737C17.96 18.5103 18.4249 19.0313 18.7295 19.7367C19.0341 20.426 19.1864 21.2997 19.1864 22.3578V28.5378C19.1864 28.9225 19.0822 29.2271 18.8738 29.4516C18.6654 29.66 18.3688 29.7642 17.984 29.7642C17.5833 29.7642 17.2787 29.66 17.0703 29.4516C16.8619 29.2271 16.7577 28.9225 16.7577 28.5378V22.5021C16.7577 21.4921 16.5573 20.7547 16.1565 20.2898C15.7717 19.8249 15.1626 19.5924 14.3289 19.5924C13.351 19.5924 12.5655 19.897 11.9724 20.5062C11.3953 21.1154 11.1067 21.933 11.1067 22.959V28.5378C11.1067 29.3554 10.6979 29.7642 9.88031 29.7642Z" fill="#0E0E0F"/>
<path d="M13.3936 3.7334H21.4092C22.5113 3.7334 23.4131 4.62012 23.4131 5.70389V10.6301C23.4131 11.7139 22.5113 12.6006 21.4092 12.6006V14.0785C21.4092 14.5218 20.8581 14.7189 20.5575 14.4233L18.7039 12.6006H13.3936C12.2915 12.6006 11.3898 11.7139 11.3898 10.6301V5.70389C11.3898 4.62012 12.2915 3.7334 13.3936 3.7334Z" fill="#FDBB52"/>
</svg>
