<svg width="38" height="38" viewBox="0 0 38 38" fill="none" xmlns="http://www.w3.org/2000/svg">
<path d="M35.7271 3.26978H2.27644C1.34841 3.26978 0.59375 4.02443 0.59375 4.95128V27.5743C0.59375 28.5012 1.34841 29.2535 2.27644 29.2535H14.3866L13.9341 30.6529H11.9427C10.8187 30.6529 9.90375 31.5667 9.90375 32.6907C9.90375 33.8146 10.8187 34.7296 11.9427 34.7296H26.0567C27.1807 34.7296 28.0945 33.8146 28.0945 32.6907C28.0945 31.5667 27.1807 30.6529 26.0567 30.6529H24.0677L23.614 29.2535H35.7253C36.6522 29.2535 37.4045 28.5006 37.4045 27.5743V4.95128C37.4062 4.02443 36.6534 3.26978 35.7271 3.26978ZM2.27644 4.45728H35.7271C35.9937 4.45728 36.2188 4.68349 36.2188 4.95128V24.7807H22.6563V23.693H22.6925C23.0209 23.693 23.2863 23.4276 23.2863 23.0992V20.824C23.2863 20.4956 23.0209 20.2302 22.6925 20.2302H21.5199L22.5007 18.4882C22.5857 18.3374 22.6005 18.1569 22.5411 17.9942L20.2587 11.6951C20.1727 11.46 19.95 11.3038 19.7 11.3038H18.5529C18.3035 11.3038 18.0797 11.4606 17.9954 11.6951L15.7094 17.9942C15.6501 18.1569 15.6655 18.3374 15.751 18.4888L16.7331 20.2302H15.5616C15.2332 20.2302 14.9678 20.4956 14.9678 20.824V23.0992C14.9678 23.4276 15.2332 23.693 15.5616 23.693H15.5978V24.7807H1.78125V4.95128C1.78125 4.67874 2.00391 4.45728 2.27644 4.45728ZM16.1565 22.5055V21.4177H17.7513H20.5046H22.0994V22.5055H22.0632H16.1927H16.1565ZM16.9195 18.1426L18.5327 13.6966V15.6774C18.3403 15.8442 18.2162 16.0865 18.2162 16.3602C18.2162 16.8619 18.6253 17.2704 19.1265 17.2704C19.6276 17.2704 20.0355 16.8619 20.0355 16.3602C20.0355 16.0871 19.9114 15.8442 19.7202 15.6774V13.6942L21.3323 18.1426L20.1572 20.2302H18.0975L16.9195 18.1426ZM16.7859 23.693H21.4688V24.7807H16.7859V23.693ZM26.9076 32.6913C26.9076 33.1609 26.5258 33.5427 26.0573 33.5427H11.9433C11.4736 33.5427 11.0918 33.1609 11.0918 32.6913C11.0918 32.2311 11.4813 31.841 11.9433 31.841H14.3658H23.6372H26.0573C26.5264 31.841 26.9076 32.2228 26.9076 32.6913ZM22.8202 30.6535H15.1822L15.6346 29.2541H22.3666L22.8202 30.6535ZM35.7271 28.0666H22.7976H15.2024H2.27644C2.00391 28.0666 1.78125 27.8457 1.78125 27.5743V25.9682H16.1922H22.0626H36.2188V27.5743C36.2188 27.8415 35.9937 28.0666 35.7271 28.0666Z" fill="#FDBB52"/>
<path d="M11.7337 10.3675C12.689 10.3675 13.4835 9.67996 13.6562 8.7733H15.45C13.4496 10.0594 12.125 12.258 12.0044 14.7215H11.6957C10.9873 14.7215 10.4108 15.298 10.4108 16.0064V17.6243C10.4108 18.3327 10.9873 18.9092 11.6957 18.9092H13.4674C14.177 18.9092 14.7547 18.3327 14.7547 17.6243V16.0064C14.7547 15.298 14.177 14.7215 13.4674 14.7215H13.1913C13.3457 12.0835 15.1382 9.81296 17.6468 9.04821C17.9146 9.81355 18.636 10.3675 19.4904 10.3675C20.3448 10.3675 21.0651 9.81355 21.3334 9.04821C23.8432 9.81355 25.6357 12.0841 25.7889 14.7233C25.0883 14.7334 24.5225 15.3046 24.5225 16.0064V17.6243C24.5225 18.3327 25.099 18.9092 25.8073 18.9092H27.5791C28.2886 18.9092 28.8663 18.3327 28.8663 17.6243V16.0064C28.8663 15.298 28.2886 14.7215 27.5791 14.7215H26.9758C26.8553 12.2586 25.5307 10.0594 23.5303 8.7733H25.729C25.9029 9.67936 26.6986 10.3675 27.6539 10.3675C28.7345 10.3675 29.6139 9.48758 29.6139 8.40518C29.6139 7.32514 28.7351 6.4458 27.6539 6.4458C26.8666 6.4458 26.1891 6.91427 25.8774 7.5858H21.264C20.9522 6.91427 20.2772 6.4458 19.4898 6.4458C18.7025 6.4458 18.0262 6.91427 17.7145 7.5858H13.5078C13.1973 6.91427 12.521 6.4458 11.7337 6.4458C10.6542 6.4458 9.7749 7.32455 9.7749 8.40518C9.7749 9.48758 10.6537 10.3675 11.7337 10.3675ZM13.5684 16.0064V17.6243C13.5684 17.6772 13.5221 17.7217 13.4686 17.7217H11.6969C11.6446 17.7217 11.5995 17.6766 11.5995 17.6243V16.0064C11.5995 15.9541 11.6446 15.909 11.6969 15.909H13.4686C13.5215 15.909 13.5684 15.9541 13.5684 16.0064ZM27.68 16.0064V17.6243C27.68 17.6772 27.6337 17.7217 27.5803 17.7217H25.8085C25.7563 17.7217 25.7112 17.6766 25.7112 17.6243V16.0064C25.7112 15.9541 25.7563 15.909 25.8085 15.909H27.5803C27.6337 15.909 27.68 15.9541 27.68 16.0064ZM27.6557 7.63389C28.0814 7.63389 28.4282 7.98005 28.4282 8.40577C28.4282 8.83327 28.0814 9.18061 27.6557 9.18061C27.2288 9.18061 26.8808 8.83327 26.8808 8.40577C26.8808 7.98005 27.2288 7.63389 27.6557 7.63389ZM19.4916 7.63389C19.9173 7.63389 20.2641 7.98005 20.2641 8.40577C20.2641 8.83327 19.9173 9.18061 19.4916 9.18061C19.0647 9.18061 18.718 8.83327 18.718 8.40577C18.718 7.98005 19.0647 7.63389 19.4916 7.63389ZM11.7337 7.63389C12.1594 7.63389 12.5062 7.98005 12.5062 8.40577C12.5062 8.83327 12.1594 9.18061 11.7337 9.18061C11.308 9.18061 10.9624 8.83327 10.9624 8.40577C10.9624 7.98005 11.308 7.63389 11.7337 7.63389Z" fill="#FDBB52"/>
</svg>
