<svg width="38" height="38" viewBox="0 0 38 38" fill="none" xmlns="http://www.w3.org/2000/svg">
<path d="M34.2203 30.6667H3.77973C2.38838 30.6667 1.25085 29.5292 1.25085 28.1379V8.53669C1.25085 7.14534 2.38838 6.00781 3.77973 6.00781H34.2297C35.6211 6.00781 36.7586 7.14534 36.7586 8.53669V28.1379C36.7586 29.5292 35.6211 30.6667 34.2203 30.6667ZM3.77973 7.40857C3.15927 7.40857 2.66101 7.91622 2.66101 8.52729V28.1285C2.66101 28.7489 3.16867 29.2472 3.77973 29.2472H34.2297C34.8502 29.2472 35.3484 28.7395 35.3484 28.1285V8.53669C35.3484 7.91622 34.8408 7.41797 34.2297 7.41797H3.77973V7.40857Z" fill="#FDBB52"/>
<path d="M8.59309 37.0781C8.46148 37.0781 8.33926 37.0405 8.21705 36.9747C7.88801 36.7679 7.7846 36.3354 7.99142 36.0064L12.0057 29.5949C12.2125 29.2658 12.6449 29.1624 12.974 29.3692C13.303 29.5761 13.4064 30.0085 13.1996 30.3375L9.18536 36.749C9.06314 36.9559 8.82812 37.0781 8.59309 37.0781Z" fill="#FDBB52"/>
<path d="M13.3125 37.0781C13.1808 37.0781 13.0586 37.0405 12.9364 36.9747C12.6074 36.7679 12.504 36.3354 12.7108 36.0064L16.725 29.5949C16.9319 29.2658 17.3643 29.1624 17.6933 29.3692C18.0224 29.5761 18.1258 30.0085 17.919 30.3375L13.9047 36.749C13.7731 36.9559 13.5475 37.0781 13.3125 37.0781Z" fill="#FDBB52"/>
<path d="M29.407 37.0781C29.172 37.0781 28.9464 36.9653 28.8053 36.749L24.7911 30.3375C24.5843 30.0085 24.6877 29.5761 25.0167 29.3692C25.3458 29.1624 25.7782 29.2658 25.985 29.5949L29.9993 36.0064C30.2061 36.3354 30.1027 36.7679 29.7737 36.9747C29.6608 37.0405 29.5292 37.0781 29.407 37.0781Z" fill="#FDBB52"/>
<path d="M24.6877 37.0781C24.4526 37.0781 24.227 36.9653 24.086 36.749L20.0717 30.3375C19.8649 30.0085 19.9683 29.5761 20.2974 29.3692C20.6264 29.1624 21.0589 29.2658 21.2657 29.5949L25.2799 36.0064C25.4867 36.3354 25.3833 36.7679 25.0543 36.9747C24.9415 37.0405 24.8193 37.0781 24.6877 37.0781Z" fill="#FDBB52"/>
<path d="M29.4069 37.0781H24.6876C24.3022 37.0781 23.9825 36.7585 23.9825 36.373C23.9825 35.9876 24.3022 35.668 24.6876 35.668H29.4069C29.7924 35.668 30.112 35.9876 30.112 36.373C30.112 36.7585 29.7924 37.0781 29.4069 37.0781Z" fill="#FDBB52"/>
<path d="M13.3123 37.0781H8.59302C8.20757 37.0781 7.88794 36.7585 7.88794 36.373C7.88794 35.9876 8.20757 35.668 8.59302 35.668H13.3123C13.6978 35.668 14.0174 35.9876 14.0174 36.373C14.0174 36.7585 13.7072 37.0781 13.3123 37.0781Z" fill="#FDBB52"/>
<path d="M21.3221 7.40847H16.6874C16.3019 7.40847 15.9823 7.08883 15.9823 6.70339V3.22501C15.9823 1.95587 17.0164 0.931152 18.2762 0.931152H19.7333C21.0025 0.931152 22.0272 1.96527 22.0272 3.22501V6.71279C22.0272 7.09824 21.7075 7.40847 21.3221 7.40847ZM17.3831 5.99831H20.6076V3.22501C20.6076 2.73615 20.2128 2.34131 19.7239 2.34131H18.2668C17.7779 2.34131 17.3831 2.73615 17.3831 3.22501V5.99831Z" fill="#FDBB52"/>
<path d="M18.06 25.4397H14.3842C13.9987 25.4397 13.6791 25.1201 13.6791 24.7346V18.3325C13.6791 17.9471 13.9987 17.6274 14.3842 17.6274H18.06C18.4454 17.6274 18.765 17.9471 18.765 18.3325V24.7346C18.765 25.1295 18.4548 25.4397 18.06 25.4397ZM15.0892 24.0296H17.3549V19.0376H15.0892V24.0296Z" fill="#FDBB52"/>
<path d="M25.2611 25.4397H21.5853C21.1999 25.4397 20.8802 25.1201 20.8802 24.7346V15.531C20.8802 15.1456 21.1999 14.8259 21.5853 14.8259H25.2611C25.6466 14.8259 25.9662 15.1456 25.9662 15.531V24.7346C25.9662 25.1295 25.6466 25.4397 25.2611 25.4397ZM22.281 24.0295H24.5467V16.2361H22.281V24.0295Z" fill="#FDBB52"/>
<path d="M32.4529 25.4397H28.7771C28.3917 25.4397 28.072 25.1201 28.072 24.7346V12.0056C28.072 11.6202 28.3917 11.3005 28.7771 11.3005H32.4529C32.8384 11.3005 33.158 11.6202 33.158 12.0056V24.7346C33.158 25.1295 32.8384 25.4397 32.4529 25.4397ZM29.4728 24.0295H31.7384V12.7107H29.4728V24.0295Z" fill="#FDBB52"/>
</svg>
