<svg width="38" height="38" viewBox="0 0 38 38" fill="none" xmlns="http://www.w3.org/2000/svg">
<g clip-path="url(#clip0_29_58322)">
<path d="M19 37.4062C23.9188 37.4062 27.9062 29.1655 27.9062 19C27.9062 8.83451 23.9188 0.59375 19 0.59375C14.0812 0.59375 10.0938 8.83451 10.0938 19C10.0938 29.1655 14.0812 37.4062 19 37.4062Z" stroke="#FDBB52" stroke-width="1.15" stroke-miterlimit="10"/>
<path d="M19 27.9062C29.1655 27.9062 37.4062 23.9188 37.4062 19C37.4062 14.0812 29.1655 10.0938 19 10.0938C8.83451 10.0938 0.59375 14.0812 0.59375 19C0.59375 23.9188 8.83451 27.9062 19 27.9062Z" stroke="#FDBB52" stroke-width="1.15" stroke-miterlimit="10"/>
<path d="M5.98537 32.0144C9.46344 35.4925 18.1098 32.4851 25.2976 25.2974C32.4854 18.1096 35.4927 9.46318 32.0147 5.98511C28.5366 2.50704 19.8902 5.51435 12.7024 12.7021C5.51462 19.8899 2.5073 28.5363 5.98537 32.0144Z" stroke="#FDBB52" stroke-width="1.15" stroke-miterlimit="10"/>
<path d="M5.98561 5.98537C2.50754 9.46344 5.51486 18.1098 12.7026 25.2976C19.8904 32.4854 28.5368 35.4927 32.0149 32.0147C35.493 28.5366 32.4856 19.8902 25.2979 12.7024C18.1101 5.51462 9.46369 2.5073 5.98561 5.98537Z" stroke="#FDBB52" stroke-width="1.15" stroke-miterlimit="10"/>
<path d="M19 17.2188C21.2954 17.2188 23.1562 16.4213 23.1562 15.4375C23.1562 14.4537 21.2954 13.6562 19 13.6562C16.7046 13.6562 14.8438 14.4537 14.8438 15.4375C14.8438 16.4213 16.7046 17.2188 19 17.2188Z" stroke="#FDBB52" stroke-width="1.15" stroke-miterlimit="10"/>
<path d="M23.1562 17.8125C23.1562 18.7958 21.2954 19.5938 19 19.5938C16.7046 19.5938 14.8438 18.7958 14.8438 17.8125" stroke="#FDBB52" stroke-width="1.15" stroke-miterlimit="10"/>
<path d="M23.1562 20.1875C23.1562 21.1708 21.2954 21.9688 19 21.9688C16.7046 21.9688 14.8438 21.1708 14.8438 20.1875" stroke="#FDBB52" stroke-width="1.15" stroke-miterlimit="10"/>
<path d="M23.1562 15.4375V22.5625C23.1562 23.5458 21.2954 24.3438 19 24.3438C16.7046 24.3438 14.8438 23.5458 14.8438 22.5625V15.4375" stroke="#FDBB52" stroke-width="1.15" stroke-miterlimit="10"/>
<path d="M29.0938 8.3125H30.2812" stroke="#FDBB52" stroke-width="1.15" stroke-miterlimit="10"/>
<path d="M29.0938 29.6875H30.2812" stroke="#FDBB52" stroke-width="1.15" stroke-miterlimit="10"/>
<path d="M7.71875 29.6875H8.90625" stroke="#FDBB52" stroke-width="1.15" stroke-miterlimit="10"/>
<path d="M7.71875 8.3125H8.90625" stroke="#FDBB52" stroke-width="1.15" stroke-miterlimit="10"/>
</g>
<defs>
<clipPath id="clip0_29_58322">
<rect width="38" height="38" fill="white"/>
</clipPath>
</defs>
</svg>
