<svg width="38" height="38" viewBox="0 0 38 38" fill="none" xmlns="http://www.w3.org/2000/svg">
<path d="M36.2188 9.5H1.78125C1.4535 9.5 1.1875 9.234 1.1875 8.90625V5.34375C1.1875 4.36169 1.98669 3.5625 2.96875 3.5625H35.0312C36.0133 3.5625 36.8125 4.36169 36.8125 5.34375V8.90625C36.8125 9.234 36.5465 9.5 36.2188 9.5ZM2.375 8.3125H35.625V5.34375C35.625 5.01719 35.3578 4.75 35.0312 4.75H2.96875C2.64219 4.75 2.375 5.01719 2.375 5.34375V8.3125Z" fill="#FDBB52"/>
<path d="M7.71875 16.625H4.15625C3.8285 16.625 3.5625 16.359 3.5625 16.0312C3.5625 15.7035 3.8285 15.4375 4.15625 15.4375H7.71875C8.0465 15.4375 8.3125 15.7035 8.3125 16.0312C8.3125 16.359 8.0465 16.625 7.71875 16.625Z" fill="#FDBB52"/>
<path d="M11.2812 14.25H4.15625C3.8285 14.25 3.5625 13.984 3.5625 13.6562C3.5625 13.3285 3.8285 13.0625 4.15625 13.0625H11.2812C11.609 13.0625 11.875 13.3285 11.875 13.6562C11.875 13.984 11.609 14.25 11.2812 14.25Z" fill="#FDBB52"/>
<path d="M8.90625 7.125C9.23417 7.125 9.5 6.85917 9.5 6.53125C9.5 6.20333 9.23417 5.9375 8.90625 5.9375C8.57833 5.9375 8.3125 6.20333 8.3125 6.53125C8.3125 6.85917 8.57833 7.125 8.90625 7.125Z" fill="#FDBB52"/>
<path d="M6.53125 7.125C6.85917 7.125 7.125 6.85917 7.125 6.53125C7.125 6.20333 6.85917 5.9375 6.53125 5.9375C6.20333 5.9375 5.9375 6.20333 5.9375 6.53125C5.9375 6.85917 6.20333 7.125 6.53125 7.125Z" fill="#FDBB52"/>
<path d="M4.15625 7.125C4.48417 7.125 4.75 6.85917 4.75 6.53125C4.75 6.20333 4.48417 5.9375 4.15625 5.9375C3.82833 5.9375 3.5625 6.20333 3.5625 6.53125C3.5625 6.85917 3.82833 7.125 4.15625 7.125Z" fill="#FDBB52"/>
<path d="M35.0312 33.25H31.4688C31.141 33.25 30.875 32.984 30.875 32.6562C30.875 32.3285 31.141 32.0625 31.4688 32.0625H35.0312C35.3578 32.0625 35.625 31.7965 35.625 31.4688V5.34375C35.625 5.016 35.3578 4.75 35.0312 4.75H2.96875C2.64219 4.75 2.375 5.016 2.375 5.34375V31.4688C2.375 31.7965 2.64219 32.0625 2.96875 32.0625H16.0312C16.359 32.0625 16.625 32.3285 16.625 32.6562C16.625 32.984 16.359 33.25 16.0312 33.25H2.96875C1.98669 33.25 1.1875 32.4508 1.1875 31.4688V5.34375C1.1875 4.36169 1.98669 3.5625 2.96875 3.5625H35.0312C36.0133 3.5625 36.8125 4.36169 36.8125 5.34375V31.4688C36.8125 32.4508 36.0133 33.25 35.0312 33.25Z" fill="#FDBB52"/>
<path d="M28.5249 33.2524C28.3646 33.2524 28.2055 33.1882 28.0891 33.0612L26.6285 31.477C26.4646 31.3001 26.4242 31.0412 26.5264 30.8239C26.8185 30.1969 27.0311 29.5485 27.1569 28.8966C27.2032 28.6591 27.3873 28.4739 27.6248 28.4264L29.6875 28.0131V26.6119L27.6248 26.1986C27.3885 26.1511 27.2044 25.9659 27.1569 25.7284C27.0322 25.0764 26.8185 24.428 26.5264 23.7999C26.4242 23.5814 26.4646 23.3237 26.6285 23.1467L28.0583 21.5959L27.2353 20.4618L25.3175 21.3441C25.0978 21.4439 24.8401 21.4047 24.6644 21.2396C24.1573 20.767 23.6063 20.3632 23.0256 20.0414C22.8154 19.925 22.6967 19.6923 22.724 19.4536L22.9698 17.3648L21.6362 16.9314L20.6043 18.7696C20.4856 18.9798 20.2469 19.0938 20.0141 19.0677C19.3479 18.9857 18.6533 18.9857 17.9871 19.0677C17.7508 19.0985 17.5156 18.9798 17.3957 18.7696L16.3649 16.9314L15.0314 17.3648L15.2772 19.4536C15.3045 19.6923 15.1858 19.925 14.9756 20.0414C14.3949 20.3632 13.8439 20.767 13.3368 21.2396C13.1623 21.4047 12.9034 21.4439 12.6837 21.3441L10.7659 20.4618L9.94294 21.597L11.3727 23.1479C11.5366 23.3249 11.5769 23.5837 11.4748 23.801C11.1827 24.428 10.9701 25.0764 10.8442 25.7284C10.7979 25.9659 10.6139 26.1511 10.3764 26.1986L8.3125 26.6119V28.0131L10.3752 28.4264C10.6115 28.4739 10.7956 28.6591 10.8431 28.8966C10.9155 29.2683 11.0164 29.6483 11.1482 30.0235C11.2551 30.3335 11.0913 30.6707 10.7813 30.7788C10.4714 30.8869 10.1341 30.723 10.0249 30.413C9.92156 30.1162 9.83369 29.8145 9.76125 29.5153L7.60237 29.0819C7.3245 29.026 7.125 28.7826 7.125 28.5V26.125C7.125 25.8424 7.3245 25.5989 7.60237 25.5431L9.76125 25.1109C9.87881 24.624 10.0356 24.1407 10.2339 23.6669L8.73762 22.0447C8.54525 21.8369 8.52625 21.5222 8.69369 21.293L10.0902 19.3705C10.2576 19.1425 10.5604 19.0605 10.8181 19.1805L12.8238 20.1032C13.2121 19.7683 13.623 19.4679 14.0493 19.2054L13.7916 17.0192C13.7596 16.739 13.9294 16.473 14.1989 16.3851L16.4576 15.65C16.7236 15.5634 17.0204 15.6762 17.1594 15.9244L18.2364 17.8457C18.7399 17.8018 19.2541 17.8018 19.7576 17.8457L20.8359 15.9244C20.9736 15.6774 21.2717 15.5634 21.5365 15.65L23.7951 16.3839C24.0647 16.4718 24.2345 16.7366 24.2024 17.018L23.9447 19.2054C24.3711 19.4679 24.7819 19.7683 25.1702 20.1032L27.1759 19.1805C27.4336 19.0605 27.7388 19.1425 27.9039 19.3705L29.3004 21.2919C29.4678 21.521 29.4488 21.8357 29.2564 22.0435L27.7602 23.6657C27.9585 24.1383 28.1164 24.6228 28.2328 25.1097L30.3917 25.5419C30.6755 25.5989 30.875 25.8424 30.875 26.125V28.5C30.875 28.7826 30.6755 29.026 30.3976 29.0819L28.2388 29.5141C28.1212 30.001 27.9644 30.4843 27.7661 30.9581L28.9631 32.256C29.1864 32.4971 29.1709 32.8724 28.9299 33.0956C28.8147 33.2001 28.6698 33.2524 28.5249 33.2524ZM19 33.25C18.6722 33.25 18.4062 32.984 18.4062 32.6562C18.4062 32.3285 18.6722 32.0625 19 32.0625C21.6196 32.0625 23.75 29.9321 23.75 27.3125C23.75 24.6929 21.6196 22.5625 19 22.5625C16.3804 22.5625 14.25 24.6929 14.25 27.3125C14.25 28.2696 14.5326 29.1923 15.0682 29.9796C15.2522 30.2504 15.1834 30.6197 14.9114 30.8049C14.6431 30.989 14.2737 30.9213 14.0873 30.6482C13.4176 29.6625 13.0625 28.5095 13.0625 27.3125C13.0625 24.0385 15.7261 21.375 19 21.375C22.2739 21.375 24.9375 24.0385 24.9375 27.3125C24.9375 30.5864 22.2739 33.25 19 33.25Z" fill="#FDBB52"/>
</svg>
