<svg width="38" height="38" viewBox="0 0 38 38" fill="none" xmlns="http://www.w3.org/2000/svg">
<g clip-path="url(#clip0_29_58336)">
<path d="M11.7977 18.5022H6.55955C6.18453 18.5022 5.88098 18.8214 5.88098 19.2147C5.88098 19.608 6.18453 19.9272 6.55955 19.9272H11.7977C12.1727 19.9272 12.4762 19.608 12.4762 19.2147C12.4762 18.8214 12.1727 18.5022 11.7977 18.5022Z" fill="#FDBB52"/>
<path d="M10.4405 23.2522H6.55955C6.18453 23.2522 5.88098 23.5714 5.88098 23.9647C5.88098 24.358 6.18453 24.6772 6.55955 24.6772H10.4405C10.8156 24.6772 11.1191 24.358 11.1191 23.9647C11.1191 23.5714 10.8156 23.2522 10.4405 23.2522Z" fill="#FDBB52"/>
<path d="M36.4624 31.0906C36.8686 30.0955 37.1192 28.5128 37.1192 27.0845C37.1192 21.7003 32.7709 16.6454 28.3258 14.9582L29.2989 11.0703C29.4238 10.4941 29.1949 10.1355 28.7683 10.1355C28.6488 10.1355 28.514 10.1635 28.367 10.2229L27.8214 10.4433V2.16025C27.8214 1.11525 27.0072 0.260254 26.0119 0.260254H2.03572C1.04048 0.260254 0.226196 1.11525 0.226196 2.16025V32.5603C0.226196 33.6053 1.04048 34.4603 2.03572 34.4603H12.9241C13.1453 36.3094 14.6476 37.7397 16.4716 37.7397C17.6021 37.7397 18.6087 37.1891 19.2646 36.3318C21.0362 37.2248 23.1126 37.7397 25.3333 37.7397C27.5541 37.7397 29.6305 37.2248 31.402 36.3318C32.058 37.1891 33.0645 37.7397 34.195 37.7397C36.1715 37.7397 37.7738 36.0615 37.7738 33.9895C37.7738 32.822 37.2631 31.7784 36.4624 31.0906ZM23.6532 14.5962L23.0131 12.0384L23.6233 12.2849C24.2345 12.5324 24.8909 12.5846 25.3338 12.5846C25.7767 12.5846 26.4326 12.5328 27.0433 12.2854L27.6536 12.0388L27.0135 14.5962C26.985 14.7112 26.975 14.8257 26.9737 14.9401H23.693C23.6917 14.8257 23.6817 14.7112 23.6532 14.5962ZM13.0146 33.0353H2.03572C1.79053 33.0353 1.58334 32.8177 1.58334 32.5603V2.16025C1.58334 1.9028 1.79053 1.68525 2.03572 1.68525H26.0119C26.2571 1.68525 26.4643 1.9028 26.4643 2.16025V10.9853C26.1408 11.0993 25.7391 11.1591 25.3333 11.1591C24.89 11.1591 24.4471 11.0907 24.111 10.9549L22.2992 10.2229C22.1522 10.1635 22.0174 10.1355 21.898 10.1355C21.4714 10.1355 21.2425 10.4941 21.3673 11.0703L22.3399 14.9582C17.8957 16.6459 13.5484 21.7003 13.547 27.0835C13.5466 28.5118 13.7981 30.0955 14.2039 31.0897C13.6302 31.5832 13.2091 32.2615 13.0146 33.0353ZM34.195 36.3147C33.5183 36.3147 32.8854 35.9955 32.4597 35.4392C32.1955 35.0934 31.8028 34.9068 31.4016 34.9068C31.2034 34.9068 31.0026 34.9524 30.8148 35.0474C29.1695 35.8762 27.2745 36.3147 25.3333 36.3147C23.3922 36.3147 21.4971 35.8762 19.8518 35.0474C19.6636 34.9524 19.4632 34.9068 19.2651 34.9068C18.8638 34.9068 18.4712 35.0939 18.207 35.4392C17.7813 35.9955 17.1489 36.3147 16.4716 36.3147C15.2466 36.3147 14.25 35.272 14.25 33.9895C14.25 33.2918 14.5468 32.6367 15.0643 32.1921C15.5321 31.7898 15.6904 31.112 15.452 30.5282C15.1245 29.7259 14.9046 28.3413 14.9051 27.084C14.906 22.3392 18.8942 17.869 22.6471 16.3647H28.0196C31.7734 17.8695 35.7621 22.3392 35.7621 27.0845C35.7621 28.3427 35.5427 29.7274 35.2152 30.5292C34.9772 31.1129 35.1351 31.7912 35.6028 32.1936C36.1204 32.6377 36.4167 33.2922 36.4167 33.9895C36.4167 35.272 35.4201 36.3147 34.195 36.3147Z" fill="#FDBB52"/>
<path d="M27.6962 24.0772C27.6962 24.4444 27.9793 24.7422 28.3295 24.7422C28.6796 24.7422 28.9628 24.4444 28.9628 24.0772C28.9628 22.9785 28.2906 21.7188 26.4648 21.4281V21.099C26.4648 20.7057 26.1612 20.3865 25.7862 20.3865C25.4112 20.3865 25.1076 20.7057 25.1076 21.099V21.402C23.3976 21.6205 22.6096 22.8888 22.6096 24.0777C22.6096 25.8053 23.9423 26.3449 25.1076 26.6679V29.7905C24.3476 29.6385 23.8758 29.1545 23.8758 28.4643C23.8758 28.0972 23.5926 27.7993 23.2425 27.7993C22.8923 27.7993 22.6091 28.0972 22.6091 28.4643C22.6091 29.8979 23.6134 30.9405 25.1072 31.14V31.4649C25.1072 31.8582 25.4107 32.1774 25.7857 32.1774C26.1608 32.1774 26.4643 31.8582 26.4643 31.4649V31.1172C28.6946 30.7985 28.9624 29.1973 28.9624 28.4648C28.9624 26.6223 27.6618 26.011 26.4643 25.6604V22.7824C27.0687 22.9173 27.6962 23.2545 27.6962 24.0772ZM23.8753 24.0772C23.8753 23.8734 23.9427 22.9562 25.1072 22.741V25.2837C24.2481 25.0144 23.8753 24.7356 23.8753 24.0772ZM27.6962 28.4643C27.6962 28.7826 27.6912 29.5416 26.4643 29.7753V27.0512C27.3103 27.3424 27.6962 27.6863 27.6962 28.4643Z" fill="#FDBB52"/>
<path d="M7.23804 15.4146C7.86233 15.4146 8.369 14.8835 8.369 14.2271C8.369 14.171 8.3604 14.1178 8.35316 14.0637L11.1534 11.1229C11.205 11.131 11.2556 11.1396 11.309 11.1396C11.5234 11.1396 11.722 11.0731 11.893 10.9643L14.7462 12.1627C14.8769 12.6672 15.3112 13.0396 15.8333 13.0396C16.4576 13.0396 16.9642 12.5085 16.9642 11.8521C16.9642 11.7504 16.9484 11.6535 16.9253 11.5595L19.4193 8.28575C19.4306 8.28623 19.441 8.28955 19.4523 8.28955C20.0766 8.28955 20.5833 7.7585 20.5833 7.10205C20.5833 6.44655 20.0766 5.91455 19.4523 5.91455C18.8271 5.91455 18.3214 6.44655 18.3214 7.10205C18.3214 7.2037 18.3372 7.3006 18.3598 7.39465L15.8663 10.6684C15.855 10.6679 15.8446 10.6646 15.8333 10.6646C15.6184 10.6646 15.4203 10.7311 15.2493 10.8398L12.3961 9.6414C12.2654 9.13743 11.8306 8.76455 11.3095 8.76455C10.6843 8.76455 10.1785 9.29655 10.1785 9.95205C10.1785 10.0081 10.1871 10.0613 10.1944 10.1155L7.39412 13.0562C7.34254 13.0481 7.29188 13.0396 7.2385 13.0396C6.61331 13.0396 6.10754 13.5716 6.10754 14.2271C6.10709 14.8835 6.61285 15.4146 7.23804 15.4146Z" fill="#FDBB52"/>
</g>
<defs>
<clipPath id="clip0_29_58336">
<rect width="38" height="38" fill="white"/>
</clipPath>
</defs>
</svg>
