<svg width="38" height="38" viewBox="0 0 38 38" fill="none" xmlns="http://www.w3.org/2000/svg">
<g clip-path="url(#clip0_29_58290)">
<path d="M21.7658 5.84651L20.9929 1H15.9927L15.6829 3.16117" stroke="#FDBB52" stroke-width="1.5" stroke-miterlimit="10" stroke-linecap="round" stroke-linejoin="round"/>
<path d="M7.09425 12.1333C6.46696 13.2256 5.98582 14.4145 5.67188 15.6757L0.969238 16.4997V21.6592L5.67188 22.4856C5.98758 23.7565 6.47398 24.9526 7.10945 26.0516L4.3337 30.041L7.86945 33.6883L11.7367 30.8251C12.8019 31.4789 13.9623 31.9802 15.1929 32.3059L15.9921 37.1602H20.9923L21.7938 32.3071" stroke="#FDBB52" stroke-width="1.5" stroke-miterlimit="10" stroke-linecap="round" stroke-linejoin="round"/>
<path d="M15.2204 5.84778C13.9897 6.17108 12.8281 6.6681 11.7612 7.32013L7.86998 4.47314L4.33423 8.11934L5.52392 9.83597" stroke="#FDBB52" stroke-width="1.5" stroke-miterlimit="10" stroke-linecap="round" stroke-linejoin="round"/>
<path d="M34.7712 21.4037C33.5277 21.4037 32.6595 20.3644 32.6595 19.0815C32.6595 17.7991 33.6674 16.7581 34.9109 16.7581C36.1538 16.7581 37.1617 17.7991 37.1617 19.0815C37.1611 20.3644 36.0147 21.4037 34.7712 21.4037Z" stroke="#FDBB52" stroke-width="1.5" stroke-miterlimit="10" stroke-linejoin="round"/>
<path d="M32.4157 19.0808H18.6971" stroke="#FDBB52" stroke-width="1.5" stroke-miterlimit="10" stroke-linecap="round" stroke-linejoin="round"/>
<path d="M27.0349 8.21938C28.2783 8.21938 29.2863 7.17942 29.2863 5.89656C29.2863 4.61369 28.2783 3.57373 27.0349 3.57373C25.7915 3.57373 24.7836 4.61369 24.7836 5.89656C24.7836 7.17942 25.7915 8.21938 27.0349 8.21938Z" stroke="#FDBB52" stroke-width="1.5" stroke-miterlimit="10" stroke-linejoin="round"/>
<path d="M27.0349 34.5866C28.2783 34.5866 29.2863 33.5466 29.2863 32.2637C29.2863 30.9809 28.2783 29.9409 27.0349 29.9409C25.7915 29.9409 24.7836 30.9809 24.7836 32.2637C24.7836 33.5466 25.7915 34.5866 27.0349 34.5866Z" stroke="#FDBB52" stroke-width="1.5" stroke-miterlimit="10" stroke-linejoin="round"/>
<path d="M12.9744 12.006C14.4833 10.7508 16.4031 9.99864 18.4931 9.99864H22.5474L25.5483 7.60645" stroke="#FDBB52" stroke-width="1.5" stroke-miterlimit="10" stroke-linecap="round" stroke-linejoin="round"/>
<path d="M25.5483 30.5538L22.5474 28.1502H18.4931C13.6344 28.1502 9.69641 24.0872 9.69641 19.0742C9.69641 17.3624 10.1553 15.7622 10.9539 14.3948" stroke="#FDBB52" stroke-width="1.5" stroke-miterlimit="10" stroke-linecap="round" stroke-linejoin="round"/>
<path d="M31.8837 14.089C33.1271 14.089 34.135 13.049 34.135 11.7662C34.135 10.4833 33.1271 9.44336 31.8837 9.44336C30.6403 9.44336 29.6323 10.4833 29.6323 11.7662C29.6323 13.049 30.6403 14.089 31.8837 14.089Z" stroke="#FDBB52" stroke-width="1.5" stroke-miterlimit="10" stroke-linejoin="round"/>
<path d="M31.8837 28.7172C33.1271 28.7172 34.135 27.6772 34.135 26.3944C34.135 25.1115 33.1271 24.0715 31.8837 24.0715C30.6403 24.0715 29.6323 25.1115 29.6323 26.3944C29.6323 27.6772 30.6403 28.7172 31.8837 28.7172Z" stroke="#FDBB52" stroke-width="1.5" stroke-miterlimit="10" stroke-linejoin="round"/>
<path d="M29.5691 25.475L25.6294 23.6269H18.493C16.0563 23.6269 14.0809 21.5888 14.0809 19.0747C14.0809 16.5607 16.0563 14.5377 18.493 14.5377H25.6294L29.5691 12.6865" stroke="#FDBB52" stroke-width="1.5" stroke-miterlimit="10" stroke-linejoin="round"/>
</g>
<defs>
<clipPath id="clip0_29_58290">
<rect width="38" height="38" fill="white"/>
</clipPath>
</defs>
</svg>
