<svg width="38" height="38" viewBox="0 0 38 38" fill="none" xmlns="http://www.w3.org/2000/svg">
<path d="M33.6255 8.37336L19.3755 3.62336C19.1318 3.54209 18.8682 3.54209 18.6245 3.62336L4.37445 8.37336C4.138 8.45218 3.93234 8.60341 3.78662 8.80561C3.64089 9.00782 3.56248 9.25075 3.5625 9.5V21.375C3.5625 21.6899 3.68761 21.992 3.91031 22.2147C4.13301 22.4374 4.43506 22.5625 4.75 22.5625C5.06494 22.5625 5.36699 22.4374 5.58969 22.2147C5.81239 21.992 5.9375 21.6899 5.9375 21.375V11.1477L10.9235 12.8087C9.5988 14.9488 9.17754 17.5273 9.75225 19.9778C10.327 22.4283 11.8506 24.5505 13.9887 25.8786C11.3169 26.9266 9.00719 28.8221 7.31797 31.4138C7.23012 31.5444 7.1691 31.6911 7.13845 31.8455C7.1078 31.9999 7.10815 32.1588 7.13946 32.313C7.17077 32.4672 7.23243 32.6137 7.32084 32.7439C7.40926 32.8741 7.52267 32.9854 7.65448 33.0714C7.78629 33.1573 7.93388 33.2163 8.08867 33.2447C8.24345 33.2731 8.40235 33.2705 8.55611 33.237C8.70987 33.2035 8.85544 33.1397 8.98436 33.0495C9.11327 32.9592 9.22295 32.8442 9.30703 32.7112C11.544 29.2793 15.0768 27.3125 19 27.3125C22.9232 27.3125 26.456 29.2793 28.693 32.7112C28.8671 32.97 29.1362 33.15 29.442 33.212C29.7477 33.2741 30.0656 33.2133 30.327 33.0429C30.5883 32.8725 30.772 32.606 30.8385 32.3012C30.9049 31.9963 30.8487 31.6776 30.682 31.4138C28.9928 28.8221 26.6742 26.9266 24.0112 25.8786C26.1473 24.5506 27.6696 22.4297 28.2442 19.981C28.8188 17.5323 28.3989 14.9556 27.0765 12.8161L33.6255 10.6341C33.862 10.5553 34.0678 10.4041 34.2135 10.2019C34.3593 9.99965 34.4378 9.7567 34.4378 9.50742C34.4378 9.25814 34.3593 9.01518 34.2135 8.81297C34.0678 8.61076 33.862 8.45956 33.6255 8.38078V8.37336ZM26.125 17.8125C26.1253 18.9389 25.8586 20.0494 25.3466 21.0527C24.8347 22.0561 24.0921 22.9238 23.1799 23.5846C22.2677 24.2454 21.2118 24.6806 20.0988 24.8543C18.9859 25.028 17.8476 24.9354 16.7774 24.584C15.7072 24.2326 14.7355 23.6325 13.9421 22.8328C13.1488 22.0332 12.5563 21.0569 12.2133 19.9839C11.8703 18.911 11.7866 17.772 11.9691 16.6605C12.1515 15.5489 12.5949 14.4965 13.2629 13.5895L18.6245 15.3707C18.8682 15.452 19.1318 15.452 19.3755 15.3707L24.7371 13.5895C25.6393 14.8126 26.1257 16.2926 26.125 17.8125ZM19 12.9987L8.50547 9.5L19 6.00132L29.4945 9.5L19 12.9987Z" fill="#FDBB52"/>
</svg>
